<svg width="208" height="470" viewBox="0 0 208 470" fill="none" xmlns="http://www.w3.org/2000/svg">
<path d="M168.84 210.99C111.02 127.2 72.7999 75.2598 87.0095 1.75977C49.9622 21.736 32.7708 92.6117 27.717 132.928C26.9779 138.824 27.946 144.764 30.2519 150.24L34.5387 160.422C34.566 160.486 34.58 160.556 34.58 160.626C34.58 161.07 34.1631 161.396 33.7327 161.288L20.86 158.07L36.05 163.95V170.954C36.05 175.672 34.7887 180.304 32.3968 184.37L21.35 203.15L4.49743 221.57C1.81858 224.498 0.541291 228.444 0.996187 232.386C1.47271 236.516 3.79897 240.206 7.31972 242.417L20.6089 250.761C22.0442 251.663 23.1489 253.005 23.7573 254.587L24.25 255.868C24.9031 257.566 24.8549 259.454 24.116 261.116L21.8673 266.176C21.5254 266.945 21.0447 267.645 20.4494 268.24L19.3222 269.368C17.551 271.139 16.886 273.734 17.5873 276.139L19.5389 282.83C19.7627 283.597 20.1763 284.296 20.7416 284.861C22.0154 286.135 22.4602 288.019 21.8905 289.728L21.1196 292.041C20.315 294.455 20.315 297.065 21.1196 299.479L21.4615 300.504C22.3388 303.136 24.1185 305.373 26.4858 306.82L27.164 307.234C30.0127 308.975 32.101 311.848 32.1814 315.185C32.4269 325.375 28.0486 332.58 33.11 345.74C42.42 360.44 42.9101 372.69 124.25 350.15C167.37 383.47 166.226 443.413 161.49 469.22C255.079 304.58 176.94 222.729 168.84 210.99Z" fill="white" stroke="white" stroke-width="0.98"/>
</svg>
