<?xml version="1.0" encoding="UTF-8"?><svg id="Calque_1" xmlns="http://www.w3.org/2000/svg" viewBox="0 0 214.69 146.17"><defs><style>.cls-1{fill:#fff;}</style></defs><path class="cls-1" d="M1.18,8.64C31.28,48.08,61.37,87.53,91.46,126.97c4.24,5.56,8.48,11.12,12.72,16.67,4.62,6.06,15.05,.09,10.36-6.06C84.45,98.14,54.36,58.7,24.27,19.26,20.03,13.7,15.79,8.14,11.55,2.58,6.92-3.47-3.5,2.5,1.18,8.64h0Z"/><path class="cls-1" d="M115.55,141.64c28.56-38.76,57.12-77.52,85.68-116.28,4.11-5.57,8.21-11.15,12.32-16.72,4.59-6.22-5.82-12.21-10.36-6.06-28.56,38.76-57.12,77.52-85.68,116.28-4.11,5.57-8.21,11.15-12.32,16.72-4.59,6.22,5.82,12.21,10.36,6.06h0Z"/></svg>